<svg id="svg" version="1.1" xmlns="http://www.w3.org/2000/svg" xmlns:xlink="http://www.w3.org/1999/xlink" width="400" height="400" viewBox="0, 0, 400,400"><g id="svgg"><path id="path0" d="M177.930 57.480 C 137.056 61.046,103.283 76.845,80.245 103.176 C 76.187 107.813,76.185 107.895,80.176 105.344 C 119.974 79.902,170.260 75.020,218.359 91.929 C 237.219 98.559,254.218 107.995,270.508 120.878 C 277.008 126.018,293.419 142.128,294.677 144.603 L 295.408 146.043 293.945 148.660 C 293.140 150.099,292.002 152.176,291.417 153.275 C 288.807 158.176,277.043 179.831,275.265 183.008 C 273.619 185.947,271.445 189.871,264.876 201.758 C 263.318 204.577,262.003 206.665,261.870 206.531 C 261.790 206.452,261.550 197.523,261.336 186.690 C 260.897 164.512,260.614 162.163,257.685 156.384 C 242.911 127.228,197.048 99.456,173.828 105.604 C 146.093 112.948,117.209 167.534,123.208 201.270 C 124.099 206.283,124.030 206.258,125.907 202.228 C 132.940 187.132,146.316 166.788,152.541 161.719 C 153.425 160.999,153.410 161.060,151.368 166.602 C 147.675 176.622,142.329 192.107,140.578 197.852 C 139.924 200.000,138.961 203.164,138.439 204.883 C 135.397 214.901,132.769 226.457,132.207 232.285 C 131.651 238.059,136.102 243.479,151.620 255.922 C 154.123 257.929,158.756 261.680,161.917 264.258 C 165.077 266.836,167.939 269.163,168.276 269.430 C 169.595 270.473,168.281 270.215,162.673 268.330 C 151.149 264.457,135.721 255.905,129.394 249.883 L 128.125 248.674 125.487 249.524 C 115.473 252.749,99.263 263.423,90.358 272.656 C 87.773 275.336,87.751 275.229,90.957 275.527 C 96.572 276.049,110.748 280.287,120.023 284.217 C 122.764 285.378,125.093 286.328,125.199 286.328 C 126.411 286.328,143.612 295.704,151.650 300.746 C 152.880 301.517,154.989 302.834,156.338 303.672 C 171.490 313.087,188.339 326.385,202.288 339.938 L 207.115 344.628 208.696 343.740 C 216.388 339.417,236.886 325.661,247.656 317.595 C 262.235 306.677,277.386 293.735,286.488 284.425 L 288.406 282.463 286.703 280.196 C 283.313 275.686,272.042 264.844,270.742 264.844 C 270.574 264.844,269.936 265.767,269.323 266.895 C 265.213 274.465,259.085 282.363,251.194 290.263 C 245.203 296.260,239.007 301.536,238.764 300.847 C 238.707 300.685,241.590 295.199,245.169 288.656 C 248.748 282.112,252.205 275.791,252.850 274.609 C 262.731 256.507,264.909 250.185,265.039 239.227 L 265.114 232.946 266.675 230.047 C 267.534 228.453,268.595 226.533,269.034 225.781 C 269.472 225.029,272.687 219.229,276.179 212.891 C 284.666 197.487,287.902 191.654,290.807 186.523 C 292.145 184.160,294.761 179.414,296.621 175.977 C 298.480 172.539,300.511 168.848,301.134 167.773 C 304.505 161.961,322.331 130.085,328.112 119.531 C 330.642 114.912,333.093 110.493,333.558 109.710 L 334.403 108.287 327.812 104.729 C 320.022 100.524,320.791 100.647,319.119 103.338 C 317.364 106.162,314.978 109.971,313.795 111.836 C 312.062 114.569,311.907 114.489,302.397 105.940 C 293.544 97.981,282.849 89.450,275.195 84.243 C 248.040 65.766,208.296 54.831,177.930 57.480 M237.305 145.849 C 240.499 147.352,245.723 153.374,250.466 161.022 C 253.067 165.214,252.726 160.996,254.492 210.938 C 254.815 220.068,255.362 230.615,255.708 234.375 C 256.703 245.196,256.132 247.875,250.448 259.044 C 246.399 267.002,227.051 302.363,221.093 312.695 C 216.639 320.421,208.860 333.792,208.728 333.952 C 208.309 334.459,208.336 333.424,208.821 330.469 C 210.841 318.155,212.501 301.552,212.493 293.750 C 212.479 280.726,212.447 280.670,195.357 263.704 C 167.426 235.974,164.138 229.193,169.590 210.552 C 176.438 187.135,190.455 168.188,211.016 154.558 C 224.250 145.785,231.832 143.273,237.305 145.849 M224.512 165.845 C 223.062 166.589,221.875 167.286,221.875 167.393 C 221.875 167.568,227.305 164.967,227.702 164.603 C 228.236 164.112,226.794 164.673,224.512 165.845 M236.261 167.073 C 236.744 167.762,237.575 169.257,238.107 170.394 C 238.639 171.531,238.964 172.021,238.829 171.484 C 238.486 170.119,236.708 166.880,235.985 166.302 C 235.653 166.037,235.777 166.384,236.261 167.073 M214.355 172.084 C 213.335 172.833,212.500 173.531,212.500 173.636 C 212.500 173.741,213.379 173.195,214.453 172.424 C 216.122 171.224,216.722 170.672,216.309 170.713 C 216.255 170.718,215.376 171.335,214.355 172.084 M204.668 180.371 C 201.739 183.382,198.152 187.402,200.223 185.352 C 202.622 182.976,208.321 176.953,208.169 176.953 C 208.072 176.953,206.496 178.491,204.668 180.371 M240.479 178.461 C 240.605 179.397,240.855 181.770,241.034 183.734 L 241.360 187.305 241.189 183.203 C 241.095 180.947,240.846 178.574,240.634 177.930 C 240.301 176.910,240.280 176.979,240.479 178.461 M198.517 187.402 C 197.685 188.585,196.231 191.355,196.644 190.969 C 197.020 190.617,199.579 186.328,199.412 186.328 C 199.335 186.328,198.932 186.812,198.517 187.402 M240.678 188.281 C 240.643 188.818,240.524 189.697,240.413 190.234 L 240.212 191.211 240.632 190.249 C 240.863 189.721,240.982 188.842,240.897 188.296 L 240.742 187.305 240.678 188.281 M238.112 194.824 C 237.268 195.903,237.200 196.084,237.855 195.512 C 238.638 194.828,239.671 193.359,239.369 193.359 C 239.308 193.359,238.742 194.019,238.112 194.824 M236.114 197.693 C 235.770 198.357,235.559 198.970,235.643 199.055 C 235.728 199.140,236.090 198.596,236.447 197.847 C 237.250 196.162,236.972 196.033,236.114 197.693 M192.609 200.647 C 192.379 201.473,192.206 202.500,192.223 202.930 C 192.240 203.359,192.488 202.744,192.773 201.563 C 193.367 199.105,193.237 198.383,192.609 200.647 M234.418 201.606 C 234.178 202.296,234.049 202.929,234.133 203.013 C 234.216 203.097,234.482 202.600,234.722 201.910 C 234.963 201.219,235.091 200.586,235.008 200.503 C 234.924 200.419,234.659 200.916,234.418 201.606 M191.534 209.570 C 191.536 211.074,191.607 211.642,191.691 210.831 C 191.776 210.021,191.774 208.790,191.688 208.097 C 191.602 207.403,191.533 208.066,191.534 209.570 M231.864 209.989 C 231.720 210.561,231.678 211.105,231.770 211.197 C 231.862 211.289,232.055 210.896,232.199 210.324 C 232.342 209.751,232.385 209.207,232.292 209.115 C 232.200 209.023,232.008 209.416,231.864 209.989 M230.497 215.067 C 230.228 216.267,230.084 217.323,230.176 217.416 C 230.268 217.508,230.563 216.601,230.831 215.402 C 231.100 214.202,231.244 213.145,231.152 213.053 C 231.060 212.961,230.765 213.867,230.497 215.067 M191.862 213.867 C 191.857 214.699,192.864 218.044,192.920 217.383 C 192.939 217.168,192.709 216.113,192.410 215.039 C 192.111 213.965,191.865 213.438,191.862 213.867 M194.155 220.898 C 194.157 221.113,194.517 221.729,194.957 222.266 C 195.487 222.914,195.620 222.980,195.352 222.461 C 194.693 221.187,194.152 220.480,194.155 220.898 M196.526 224.590 C 197.023 225.331,199.019 227.542,200.961 229.503 C 204.249 232.823,204.289 232.852,201.548 229.913 C 199.929 228.178,197.933 225.967,197.113 225.000 C 196.045 223.742,195.878 223.626,196.526 224.590 M227.825 228.516 C 227.825 229.268,227.905 229.575,228.004 229.199 C 228.102 228.823,228.102 228.208,228.004 227.832 C 227.905 227.456,227.825 227.764,227.825 228.516 M205.568 233.858 C 206.281 234.667,209.766 237.276,209.766 237.001 C 209.766 236.915,208.667 235.997,207.324 234.963 C 205.981 233.928,205.191 233.431,205.568 233.858 M226.384 236.621 C 226.236 237.642,226.036 238.916,225.940 239.453 C 225.787 240.296,225.811 240.322,226.113 239.648 C 226.524 238.733,227.113 234.766,226.839 234.766 C 226.736 234.766,226.531 235.601,226.384 236.621 " stroke="none" fill="#b38f4a" fill-rule="evenodd"></path><path id="path1" d="M0.000 200.000 L 0.000 400.000 200.000 400.000 L 400.000 400.000 400.000 200.000 L 400.000 0.000 200.000 0.000 L 0.000 0.000 0.000 200.000 M196.534 57.620 C 214.773 58.970,227.285 61.827,245.703 68.847 C 251.752 71.152,264.030 77.177,269.531 80.538 C 278.258 85.870,291.195 95.870,302.397 105.940 C 311.907 114.489,312.062 114.569,313.795 111.836 C 314.978 109.971,317.364 106.162,319.119 103.338 C 320.791 100.647,320.022 100.524,327.812 104.729 L 334.403 108.287 333.558 109.710 C 333.093 110.493,330.642 114.912,328.112 119.531 C 322.331 130.085,304.505 161.961,301.134 167.773 C 300.511 168.848,298.480 172.539,296.621 175.977 C 294.761 179.414,292.145 184.160,290.807 186.523 C 287.902 191.654,284.666 197.487,276.179 212.891 C 272.687 219.229,269.472 225.029,269.034 225.781 C 268.595 226.533,267.534 228.453,266.675 230.047 L 265.114 232.946 265.039 239.227 C 264.909 250.185,262.731 256.507,252.850 274.609 C 252.205 275.791,248.748 282.112,245.169 288.656 C 241.590 295.199,238.707 300.685,238.764 300.847 C 239.007 301.536,245.203 296.260,251.194 290.263 C 259.085 282.363,265.213 274.465,269.323 266.895 C 269.936 265.767,270.574 264.844,270.742 264.844 C 272.042 264.844,283.313 275.686,286.703 280.196 L 288.406 282.463 286.488 284.425 C 277.386 293.735,262.235 306.677,247.656 317.595 C 236.886 325.661,216.388 339.417,208.696 343.740 L 207.115 344.628 202.288 339.938 C 188.339 326.385,171.490 313.087,156.338 303.672 C 154.989 302.834,152.880 301.517,151.650 300.746 C 143.612 295.704,126.411 286.328,125.199 286.328 C 125.093 286.328,122.764 285.378,120.023 284.217 C 110.748 280.287,96.572 276.049,90.957 275.527 C 87.751 275.229,87.773 275.336,90.358 272.656 C 99.263 263.423,115.473 252.749,125.487 249.524 L 128.125 248.674 129.394 249.883 C 135.721 255.905,151.149 264.457,162.673 268.330 C 168.281 270.215,169.595 270.473,168.276 269.430 C 167.939 269.163,165.077 266.836,161.917 264.258 C 158.756 261.680,154.123 257.929,151.620 255.922 C 136.102 243.479,131.651 238.059,132.207 232.285 C 132.769 226.457,135.397 214.901,138.439 204.883 C 138.961 203.164,139.924 200.000,140.578 197.852 C 142.329 192.107,147.675 176.622,151.368 166.602 C 153.410 161.060,153.425 160.999,152.541 161.719 C 146.316 166.788,132.940 187.132,125.907 202.228 C 124.030 206.258,124.099 206.283,123.208 201.270 C 117.209 167.534,146.093 112.948,173.828 105.604 C 197.048 99.456,242.911 127.228,257.685 156.384 C 260.614 162.163,260.897 164.512,261.336 186.690 C 261.550 197.523,261.790 206.452,261.870 206.531 C 262.003 206.665,263.318 204.577,264.876 201.758 C 271.445 189.871,273.619 185.947,275.265 183.008 C 277.043 179.831,288.807 158.176,291.417 153.275 C 292.002 152.176,293.140 150.099,293.945 148.660 L 295.408 146.043 294.677 144.603 C 293.419 142.128,277.008 126.018,270.508 120.878 C 223.650 83.822,163.601 72.397,110.547 90.443 C 101.416 93.548,89.423 99.433,80.176 105.344 C 76.185 107.895,76.187 107.813,80.245 103.176 C 101.206 79.219,134.942 62.184,168.945 58.388 C 182.179 56.910,185.641 56.814,196.534 57.620 M226.638 146.062 C 207.938 152.571,186.682 172.565,176.563 193.164 C 161.272 224.294,163.290 231.868,195.357 263.704 C 212.447 280.670,212.479 280.726,212.493 293.750 C 212.501 301.552,210.841 318.155,208.821 330.469 C 208.336 333.424,208.309 334.459,208.728 333.952 C 208.860 333.792,216.639 320.421,221.093 312.695 C 227.051 302.363,246.399 267.002,250.448 259.044 C 256.132 247.875,256.703 245.196,255.708 234.375 C 255.362 230.615,254.815 220.068,254.492 210.938 C 252.726 160.996,253.067 165.214,250.466 161.022 C 241.269 146.192,235.917 142.832,226.638 146.062 M233.284 164.019 C 240.596 166.799,244.028 188.990,238.122 195.298 C 236.394 197.143,234.497 201.704,232.591 208.594 C 229.755 218.848,228.966 222.589,226.972 235.265 C 226.120 240.675,225.643 241.594,223.506 241.936 C 215.238 243.258,197.617 229.731,193.227 218.692 C 190.177 211.021,191.297 201.328,196.407 191.168 C 202.678 178.702,226.253 161.346,233.284 164.019 " stroke="none" fill="#000000" fill-rule="evenodd"></path><path id="path2" d="M229.297 164.039 C 222.793 166.040,210.341 174.689,203.453 181.992 C 192.495 193.608,188.686 210.441,194.606 221.094 C 200.089 230.960,214.538 241.797,222.210 241.797 C 225.496 241.797,225.583 241.626,227.182 232.031 C 230.300 213.328,234.204 199.922,237.957 195.039 C 245.192 185.626,238.381 161.245,229.297 164.039 " stroke="none" fill="#e8ddc3" fill-rule="evenodd"></path></g></svg>