<?xml version="1.0" encoding="UTF-8"?>
<svg xmlns="http://www.w3.org/2000/svg" width="192px" height="192px" viewBox="0 0 192 192">
<g id="surface1">
<path style=" stroke:none;fill-rule:evenodd;fill:rgb(70.19608%,56.470591%,29.019609%);fill-opacity:1;" d="M 79.039062 3.40625 C 77.601562 3.496094 76.371094 3.652344 76.308594 3.753906 C 76.246094 3.855469 75.421875 3.992188 74.472656 4.058594 C 73.527344 4.125 72.75 4.238281 72.75 4.308594 C 72.75 4.378906 71.675781 4.546875 70.359375 4.683594 C 69.042969 4.820312 67.917969 5.007812 67.855469 5.105469 C 67.789062 5.203125 66.90625 5.402344 65.886719 5.546875 C 64.867188 5.691406 63.882812 5.894531 63.707031 6 C 63.527344 6.101562 63.210938 6.1875 63.003906 6.1875 C 62.796875 6.1875 62.625 6.261719 62.625 6.355469 C 62.625 6.449219 61.613281 6.714844 60.375 6.945312 C 59.023438 7.195312 58.125 7.453125 58.125 7.582031 C 58.125 7.777344 56.699219 8.210938 54.984375 8.539062 C 54.648438 8.601562 54.375 8.722656 54.375 8.804688 C 54.375 8.890625 54.078125 9.011719 53.71875 9.082031 C 53.359375 9.148438 53.0625 9.277344 53.0625 9.363281 C 53.0625 9.453125 52.621094 9.628906 52.078125 9.757812 C 51.535156 9.886719 51.050781 10.046875 51 10.113281 C 50.949219 10.175781 50.273438 10.472656 49.5 10.769531 C 48.726562 11.066406 48.050781 11.367188 48 11.433594 C 47.949219 11.5 47.378906 11.75 46.730469 11.988281 C 46.082031 12.226562 45.492188 12.527344 45.417969 12.652344 C 45.34375 12.78125 44.792969 13.0625 44.195312 13.285156 C 43.597656 13.507812 42.941406 13.84375 42.738281 14.035156 C 42.535156 14.222656 41.90625 14.535156 41.339844 14.726562 C 40.773438 14.921875 40.3125 15.148438 40.3125 15.234375 C 40.3125 15.324219 40.058594 15.484375 39.75 15.589844 C 39.441406 15.699219 39.1875 15.847656 39.1875 15.917969 C 39.1875 15.992188 38.890625 16.15625 38.53125 16.285156 C 38.171875 16.417969 37.875 16.585938 37.875 16.664062 C 37.875 16.738281 37.539062 16.953125 37.125 17.132812 C 36.710938 17.316406 36.375 17.542969 36.375 17.636719 C 36.375 17.734375 36.25 17.8125 36.09375 17.8125 C 35.9375 17.8125 35.8125 17.882812 35.8125 17.96875 C 35.8125 18.050781 35.433594 18.3125 34.96875 18.542969 C 34.503906 18.773438 34.125 19.046875 34.125 19.148438 C 34.125 19.25 33.847656 19.445312 33.511719 19.585938 C 33.175781 19.730469 32.738281 20.019531 32.546875 20.234375 C 32.351562 20.449219 32.078125 20.625 31.941406 20.625 C 31.800781 20.625 31.6875 20.707031 31.6875 20.808594 C 31.6875 20.910156 31.429688 21.125 31.113281 21.285156 C 30.800781 21.449219 30.378906 21.746094 30.175781 21.949219 C 29.976562 22.148438 29.707031 22.3125 29.574219 22.3125 C 29.445312 22.3125 29.128906 22.566406 28.875 22.875 C 28.621094 23.183594 28.308594 23.4375 28.183594 23.4375 C 28.054688 23.4375 27.71875 23.734375 27.429688 24.09375 C 27.140625 24.453125 26.820312 24.75 26.710938 24.75 C 26.605469 24.75 26.101562 25.171875 25.59375 25.6875 C 25.085938 26.203125 24.59375 26.625 24.503906 26.625 C 24.273438 26.625 17.863281 33.195312 16.457031 34.871094 C 15.339844 36.203125 15.765625 37.300781 16.949219 36.140625 C 17.183594 35.910156 17.667969 35.554688 18.019531 35.355469 C 18.367188 35.152344 18.765625 34.878906 18.902344 34.746094 C 19.039062 34.609375 19.296875 34.5 19.472656 34.5 C 19.648438 34.5 19.929688 34.351562 20.101562 34.171875 C 20.628906 33.613281 20.90625 33.433594 21.644531 33.167969 C 22.035156 33.023438 22.5625 32.71875 22.816406 32.484375 C 23.070312 32.246094 23.609375 31.953125 24.019531 31.824219 C 24.429688 31.699219 25.015625 31.378906 25.328125 31.113281 C 25.636719 30.847656 26.332031 30.476562 26.867188 30.285156 C 27.40625 30.09375 27.910156 29.824219 27.992188 29.6875 C 28.074219 29.550781 28.265625 29.4375 28.414062 29.4375 C 28.566406 29.4375 28.6875 29.363281 28.6875 29.269531 C 28.6875 29.179688 28.980469 29.050781 29.335938 28.980469 C 29.695312 28.914062 30.097656 28.753906 30.226562 28.621094 C 30.359375 28.492188 30.921875 28.238281 31.472656 28.054688 C 32.027344 27.875 32.785156 27.539062 33.160156 27.300781 C 33.816406 26.894531 34.898438 26.523438 36.09375 26.300781 C 36.402344 26.242188 36.78125 26.054688 36.9375 25.886719 C 37.09375 25.71875 37.894531 25.425781 38.71875 25.238281 C 40.148438 24.910156 41.421875 24.445312 41.625 24.175781 C 41.675781 24.105469 42.5625 23.898438 43.59375 23.714844 C 44.625 23.53125 45.519531 23.300781 45.585938 23.203125 C 45.648438 23.105469 46.300781 22.929688 47.039062 22.816406 C 47.773438 22.699219 48.375 22.546875 48.375 22.476562 C 48.375 22.40625 48.964844 22.292969 49.6875 22.21875 C 50.410156 22.144531 51 22.027344 51 21.957031 C 51 21.800781 53.15625 21.421875 54.984375 21.25 C 55.679688 21.1875 56.25 21.0625 56.25 20.972656 C 56.25 20.886719 56.714844 20.8125 57.28125 20.8125 C 57.847656 20.8125 58.3125 20.742188 58.3125 20.65625 C 58.3125 20.574219 59.386719 20.382812 60.703125 20.238281 C 65.71875 19.679688 83.25 20.003906 83.25 20.65625 C 83.25 20.742188 83.796875 20.8125 84.46875 20.8125 C 85.140625 20.8125 85.6875 20.882812 85.6875 20.964844 C 85.6875 21.050781 86.59375 21.226562 87.703125 21.359375 C 90.820312 21.726562 91.125 21.777344 91.125 21.941406 C 91.125 22.023438 91.777344 22.152344 92.578125 22.226562 C 93.378906 22.300781 94.074219 22.417969 94.125 22.488281 C 94.175781 22.558594 94.84375 22.710938 95.605469 22.824219 C 96.367188 22.941406 97.042969 23.113281 97.105469 23.210938 C 97.167969 23.304688 98.105469 23.53125 99.1875 23.710938 C 100.269531 23.890625 101.183594 24.113281 101.21875 24.203125 C 101.253906 24.296875 101.476562 24.375 101.71875 24.375 C 101.960938 24.375 102.183594 24.453125 102.21875 24.550781 C 102.253906 24.652344 103.082031 24.90625 104.058594 25.125 C 105.035156 25.34375 105.878906 25.578125 105.933594 25.648438 C 106.160156 25.953125 106.894531 26.226562 108.292969 26.535156 C 109.109375 26.714844 109.914062 26.976562 110.078125 27.117188 C 110.238281 27.257812 110.515625 27.375 110.6875 27.375 C 110.859375 27.375 111 27.441406 111 27.523438 C 111 27.605469 111.589844 27.832031 112.3125 28.03125 C 113.035156 28.230469 113.625 28.453125 113.625 28.53125 C 113.625 28.609375 113.976562 28.765625 114.402344 28.882812 C 114.832031 28.996094 115.300781 29.210938 115.449219 29.359375 C 115.59375 29.503906 115.871094 29.625 116.066406 29.625 C 116.257812 29.625 116.464844 29.707031 116.527344 29.804688 C 116.585938 29.902344 117.121094 30.132812 117.710938 30.316406 C 118.300781 30.496094 118.917969 30.796875 119.085938 30.980469 C 119.25 31.164062 119.519531 31.3125 119.683594 31.3125 C 119.84375 31.3125 120.023438 31.386719 120.078125 31.472656 C 120.132812 31.5625 120.558594 31.742188 121.019531 31.871094 C 121.511719 32.007812 121.90625 32.246094 121.96875 32.4375 C 122.03125 32.632812 122.484375 32.894531 123.097656 33.085938 C 123.664062 33.265625 124.125 33.472656 124.125 33.546875 C 124.125 33.621094 124.988281 34.132812 126.046875 34.679688 C 127.105469 35.226562 128.359375 35.957031 128.835938 36.304688 C 129.316406 36.652344 129.828125 36.9375 129.980469 36.9375 C 130.128906 36.9375 130.457031 37.109375 130.703125 37.320312 C 131.453125 37.953125 133.347656 39.257812 134.34375 39.832031 C 134.859375 40.128906 135.480469 40.570312 135.730469 40.8125 C 135.976562 41.050781 136.292969 41.25 136.433594 41.25 C 136.574219 41.25 136.6875 41.328125 136.6875 41.425781 C 136.6875 41.519531 137.023438 41.746094 137.4375 41.929688 C 137.847656 42.109375 138.230469 42.398438 138.285156 42.570312 C 138.339844 42.742188 138.695312 43.042969 139.082031 43.238281 C 139.464844 43.433594 139.992188 43.804688 140.253906 44.0625 C 140.984375 44.78125 141.734375 45.375 141.917969 45.375 C 142.007812 45.375 142.21875 45.585938 142.390625 45.84375 C 142.558594 46.101562 142.777344 46.3125 142.875 46.3125 C 142.976562 46.3125 143.570312 46.796875 144.203125 47.390625 C 144.832031 47.984375 145.441406 48.503906 145.554688 48.542969 C 145.671875 48.585938 146.03125 48.882812 146.355469 49.199219 C 146.675781 49.519531 147.507812 50.289062 148.203125 50.90625 C 148.894531 51.523438 149.605469 52.191406 149.777344 52.386719 C 150.210938 52.878906 150.605469 53.269531 151.140625 53.75 C 151.390625 53.976562 152.101562 54.722656 152.71875 55.410156 C 153.335938 56.101562 154.179688 57.027344 154.59375 57.464844 C 155.007812 57.90625 155.640625 58.628906 156 59.070312 C 156.359375 59.511719 156.804688 60.027344 156.984375 60.21875 C 157.339844 60.589844 157.429688 61.3125 157.125 61.3125 C 157.023438 61.3125 156.9375 61.40625 156.9375 61.519531 C 156.9375 61.792969 156.339844 63.066406 156.152344 63.199219 C 155.929688 63.351562 154.875 65.464844 154.875 65.753906 C 154.875 65.886719 154.753906 66 154.605469 66 C 154.457031 66 154.28125 66.191406 154.210938 66.421875 C 154.035156 67 153.515625 68.136719 153.371094 68.25 C 153.242188 68.351562 152.808594 69.164062 152.417969 70.03125 C 152.28125 70.339844 152.015625 70.796875 151.832031 71.039062 C 151.648438 71.285156 151.5 71.6875 151.5 71.929688 C 151.5 72.175781 151.414062 72.375 151.308594 72.375 C 151.203125 72.375 151.015625 72.605469 150.890625 72.890625 C 150.765625 73.175781 150.621094 73.449219 150.566406 73.5 C 150.507812 73.550781 150.222656 74.078125 149.929688 74.671875 C 149.632812 75.265625 149.328125 75.75 149.25 75.75 C 149.167969 75.75 148.988281 76.140625 148.847656 76.613281 C 148.707031 77.089844 148.417969 77.660156 148.203125 77.878906 C 147.988281 78.101562 147.613281 78.765625 147.371094 79.359375 C 147.128906 79.953125 146.867188 80.4375 146.789062 80.4375 C 146.714844 80.4375 146.589844 80.625 146.519531 80.851562 C 146.445312 81.078125 146.273438 81.378906 146.132812 81.519531 C 145.992188 81.660156 145.875 81.941406 145.875 82.144531 C 145.875 82.347656 145.75 82.558594 145.59375 82.617188 C 145.441406 82.679688 145.21875 83.054688 145.097656 83.457031 C 144.976562 83.859375 144.8125 84.1875 144.734375 84.1875 C 144.652344 84.1875 144.53125 84.378906 144.460938 84.609375 C 144.386719 84.839844 144.214844 85.160156 144.078125 85.320312 C 143.9375 85.480469 143.691406 85.980469 143.535156 86.429688 C 143.375 86.882812 143.085938 87.363281 142.890625 87.496094 C 142.695312 87.632812 142.40625 88.132812 142.246094 88.601562 C 142.085938 89.074219 141.789062 89.601562 141.589844 89.777344 C 141.390625 89.949219 141.074219 90.515625 140.890625 91.03125 C 140.703125 91.546875 140.492188 92.011719 140.421875 92.0625 C 140.351562 92.113281 140.15625 92.453125 139.992188 92.8125 C 139.679688 93.5 139.394531 93.96875 138.953125 94.519531 C 138.808594 94.699219 138.574219 95.191406 138.433594 95.609375 C 138.292969 96.027344 137.980469 96.582031 137.738281 96.839844 C 137.496094 97.101562 137.15625 97.691406 136.980469 98.15625 C 136.273438 100.003906 136.175781 98.910156 136.023438 87.5625 C 135.886719 77.136719 135.660156 72.234375 135.285156 71.507812 C 135.128906 71.210938 135 70.863281 135 70.734375 C 135 70.605469 134.917969 70.5 134.820312 70.5 C 134.71875 70.5 134.582031 70.074219 134.511719 69.550781 C 134.441406 69.027344 134.277344 68.492188 134.144531 68.355469 C 134.007812 68.222656 133.757812 67.683594 133.585938 67.15625 C 133.390625 66.5625 133.136719 66.15625 132.917969 66.085938 C 132.722656 66.027344 132.5625 65.824219 132.5625 65.636719 C 132.5625 65.453125 132.394531 65.085938 132.1875 64.824219 C 131.980469 64.5625 131.8125 64.253906 131.8125 64.140625 C 131.8125 64.03125 131.703125 63.9375 131.566406 63.9375 C 131.429688 63.9375 131.171875 63.625 130.988281 63.246094 C 130.671875 62.578125 130.414062 62.246094 129.328125 61.085938 C 129.042969 60.78125 128.8125 60.441406 128.8125 60.332031 C 128.8125 60.21875 128.519531 59.824219 128.164062 59.453125 C 126.277344 57.492188 125.832031 56.976562 125.71875 56.628906 C 125.652344 56.417969 125.355469 56.121094 125.0625 55.96875 C 124.769531 55.816406 124.476562 55.527344 124.414062 55.332031 C 124.347656 55.132812 124.089844 54.835938 123.835938 54.667969 C 123.582031 54.503906 123.375 54.242188 123.375 54.09375 C 123.375 53.945312 123.144531 53.699219 122.859375 53.546875 C 122.574219 53.398438 121.816406 52.722656 121.167969 52.042969 C 120.523438 51.367188 119.882812 50.8125 119.746094 50.8125 C 119.613281 50.8125 119.382812 50.59375 119.242188 50.328125 C 119.097656 50.0625 118.742188 49.71875 118.453125 49.570312 C 118.160156 49.417969 117.84375 49.085938 117.746094 48.835938 C 117.652344 48.582031 117.449219 48.375 117.304688 48.375 C 117.15625 48.375 116.644531 47.996094 116.167969 47.53125 C 115.6875 47.066406 115.226562 46.6875 115.136719 46.6875 C 115.050781 46.6875 114.652344 46.394531 114.253906 46.035156 C 113.855469 45.675781 113.429688 45.382812 113.304688 45.378906 C 113.183594 45.375 113.011719 45.261719 112.929688 45.125 C 112.847656 44.988281 112.496094 44.714844 112.148438 44.515625 C 111.804688 44.320312 111.226562 43.890625 110.871094 43.566406 C 110.515625 43.242188 109.980469 42.929688 109.6875 42.871094 C 109.375 42.808594 109.105469 42.605469 109.035156 42.382812 C 108.964844 42.171875 108.796875 42 108.652344 42 C 108.355469 42 107 41.238281 106.90625 41.023438 C 106.871094 40.941406 106.722656 40.875 106.578125 40.875 C 106.433594 40.875 106.3125 40.796875 106.3125 40.703125 C 106.3125 40.609375 105.875 40.382812 105.339844 40.207031 C 104.800781 40.027344 104.195312 39.726562 103.988281 39.535156 C 103.785156 39.34375 103.464844 39.1875 103.277344 39.1875 C 103.089844 39.1875 102.9375 39.109375 102.9375 39.015625 C 102.9375 38.917969 102.667969 38.78125 102.339844 38.710938 C 102.007812 38.636719 101.621094 38.460938 101.476562 38.316406 C 101.332031 38.171875 100.714844 37.914062 100.105469 37.746094 C 99.5 37.578125 99 37.339844 99 37.21875 C 99 37.011719 98.347656 36.796875 96.328125 36.339844 C 95.839844 36.226562 95.4375 36.074219 95.4375 36 C 95.4375 35.695312 92.316406 34.875 91.171875 34.875 C 90.878906 34.875 90.550781 34.789062 90.449219 34.683594 C 90.34375 34.582031 89.3125 34.441406 88.160156 34.375 C 87.007812 34.308594 86.0625 34.183594 86.0625 34.097656 C 86.0625 33.890625 81.800781 33.890625 81.675781 34.097656 C 81.621094 34.183594 80.792969 34.3125 79.835938 34.378906 C 78.878906 34.445312 78.066406 34.582031 78.03125 34.683594 C 78 34.78125 77.664062 34.917969 77.285156 34.988281 C 76.492188 35.132812 75 35.789062 75 35.992188 C 75 36.066406 74.523438 36.289062 73.941406 36.484375 C 73.316406 36.695312 72.84375 36.972656 72.796875 37.160156 C 72.75 37.332031 72.480469 37.554688 72.199219 37.65625 C 71.917969 37.753906 71.453125 38.054688 71.160156 38.324219 C 70.871094 38.59375 70.539062 38.8125 70.425781 38.8125 C 70.308594 38.8125 70.109375 38.980469 69.980469 39.1875 C 69.851562 39.394531 69.660156 39.5625 69.554688 39.5625 C 69.449219 39.5625 69.066406 39.859375 68.707031 40.21875 C 68.34375 40.578125 67.96875 40.875 67.867188 40.875 C 67.769531 40.875 67.6875 40.960938 67.6875 41.070312 C 67.6875 41.175781 67.402344 41.433594 67.050781 41.636719 C 66.703125 41.84375 66.371094 42.179688 66.320312 42.378906 C 66.265625 42.582031 65.964844 42.894531 65.648438 43.074219 C 65.335938 43.257812 64.96875 43.617188 64.835938 43.875 C 64.703125 44.132812 64.171875 44.765625 63.652344 45.28125 C 63.136719 45.796875 62.585938 46.464844 62.433594 46.761719 C 62.28125 47.0625 61.882812 47.566406 61.546875 47.882812 C 61.210938 48.199219 60.9375 48.609375 60.9375 48.796875 C 60.9375 48.980469 60.746094 49.207031 60.515625 49.296875 C 60.285156 49.386719 59.929688 49.769531 59.730469 50.148438 C 59.53125 50.527344 59.085938 51.132812 58.746094 51.492188 C 58.402344 51.855469 58.125 52.277344 58.125 52.425781 C 58.125 52.578125 57.957031 52.882812 57.75 53.105469 C 57.542969 53.328125 57.375 53.625 57.375 53.765625 C 57.375 53.910156 57.128906 54.230469 56.832031 54.480469 C 56.53125 54.734375 56.136719 55.359375 55.949219 55.875 C 55.757812 56.40625 55.46875 56.855469 55.277344 56.917969 C 55.089844 56.976562 54.9375 57.128906 54.9375 57.253906 C 54.9375 57.378906 54.769531 57.8125 54.5625 58.21875 C 54.355469 58.625 54.1875 59.09375 54.1875 59.269531 C 54.1875 59.441406 54.039062 59.621094 53.859375 59.667969 C 53.660156 59.71875 53.390625 60.167969 53.171875 60.816406 C 52.976562 61.398438 52.742188 61.875 52.65625 61.875 C 52.570312 61.875 52.5 62 52.5 62.15625 C 52.5 62.3125 52.417969 62.4375 52.320312 62.4375 C 52.222656 62.4375 51.996094 62.902344 51.820312 63.46875 C 51.640625 64.035156 51.433594 64.5 51.359375 64.5 C 51.285156 64.5 51.125 64.921875 51 65.4375 C 50.875 65.953125 50.707031 66.375 50.621094 66.375 C 50.535156 66.375 50.410156 66.628906 50.34375 66.9375 C 50.277344 67.246094 50.160156 67.5 50.085938 67.5 C 50.007812 67.5 49.753906 68.300781 49.519531 69.28125 C 49.257812 70.371094 48.996094 71.0625 48.851562 71.0625 C 48.640625 71.0625 48.308594 72.152344 47.902344 74.203125 C 47.835938 74.539062 47.703125 74.8125 47.609375 74.8125 C 47.515625 74.8125 47.4375 75.007812 47.4375 75.242188 C 47.4375 75.480469 47.363281 75.753906 47.273438 75.851562 C 47.097656 76.046875 46.5 79.476562 46.5 80.289062 C 46.5 80.558594 46.417969 80.808594 46.316406 80.84375 C 46.085938 80.921875 45.757812 83.167969 45.753906 84.703125 C 45.75 85.355469 45.667969 85.875 45.5625 85.875 C 45.441406 85.875 45.375 87.46875 45.375 90.28125 C 45.375 92.703125 45.445312 94.6875 45.527344 94.6875 C 45.609375 94.6875 45.765625 95.589844 45.871094 96.691406 C 45.988281 97.886719 46.152344 98.726562 46.28125 98.773438 C 46.402344 98.8125 46.5 99.089844 46.5 99.390625 C 46.5 99.847656 46.574219 99.9375 46.96875 99.9375 C 47.308594 99.9375 47.4375 99.835938 47.4375 99.574219 C 47.4375 99.375 47.554688 99.097656 47.695312 98.957031 C 47.835938 98.816406 48.144531 98.132812 48.375 97.445312 C 48.609375 96.753906 48.910156 96.1875 49.042969 96.1875 C 49.179688 96.1875 49.339844 95.996094 49.40625 95.765625 C 49.632812 94.949219 50.148438 93.839844 50.433594 93.5625 C 50.738281 93.261719 51.375 91.988281 51.375 91.671875 C 51.375 91.570312 51.542969 91.304688 51.75 91.082031 C 51.957031 90.859375 52.125 90.527344 52.125 90.339844 C 52.125 90.152344 52.195312 90 52.28125 90 C 52.429688 90 53.816406 87.425781 53.8125 87.152344 C 53.8125 87.082031 54.070312 86.742188 54.386719 86.402344 C 54.699219 86.0625 55.007812 85.539062 55.070312 85.242188 C 55.132812 84.941406 55.332031 84.660156 55.523438 84.609375 C 55.710938 84.5625 55.914062 84.339844 55.976562 84.121094 C 56.195312 83.339844 56.722656 82.410156 57.140625 82.066406 C 57.371094 81.878906 57.5625 81.617188 57.5625 81.492188 C 57.5625 81.363281 57.714844 81.09375 57.898438 80.894531 C 58.082031 80.695312 58.34375 80.257812 58.484375 79.921875 C 58.621094 79.585938 58.789062 79.3125 58.863281 79.3125 C 59.039062 79.3125 60.121094 77.757812 60.269531 77.292969 C 60.332031 77.085938 60.550781 76.871094 60.753906 76.820312 C 60.957031 76.765625 61.195312 76.527344 61.289062 76.285156 C 61.382812 76.042969 61.742188 75.589844 62.089844 75.28125 C 62.433594 74.96875 62.886719 74.476562 63.09375 74.179688 C 63.503906 73.589844 64.339844 72.75 64.511719 72.75 C 64.714844 72.75 64.449219 73.953125 64.191406 74.210938 C 64.050781 74.351562 63.9375 74.585938 63.9375 74.730469 C 63.9375 74.878906 63.863281 75 63.777344 75 C 63.6875 75 63.503906 75.527344 63.367188 76.171875 C 63.234375 76.816406 63.0625 77.386719 62.988281 77.4375 C 62.914062 77.488281 62.722656 77.953125 62.566406 78.46875 C 62.171875 79.746094 61.804688 80.699219 61.664062 80.8125 C 61.601562 80.863281 61.457031 81.285156 61.347656 81.75 C 60.945312 83.46875 60.679688 84.285156 60.464844 84.46875 C 60.230469 84.667969 59.4375 87.246094 59.4375 87.796875 C 59.4375 87.976562 59.351562 88.125 59.25 88.125 C 59.148438 88.125 59.0625 88.335938 59.0625 88.59375 C 59.0625 88.851562 58.992188 89.0625 58.90625 89.0625 C 58.730469 89.0625 58.125 91.097656 58.125 91.683594 C 58.125 91.894531 58.058594 92.0625 57.976562 92.0625 C 57.808594 92.0625 57.375 93.554688 57.375 94.128906 C 57.375 94.332031 57.292969 94.5 57.191406 94.5 C 57.089844 94.5 56.957031 94.730469 56.894531 95.015625 C 56.832031 95.300781 56.710938 95.699219 56.625 95.90625 C 56.535156 96.113281 56.28125 97.039062 56.058594 97.96875 C 55.835938 98.898438 55.578125 99.800781 55.484375 99.980469 C 55.390625 100.160156 55.3125 100.433594 55.3125 100.589844 C 55.3125 100.746094 55.226562 100.875 55.125 100.875 C 55.023438 100.875 54.9375 101.074219 54.9375 101.320312 C 54.9375 101.566406 54.769531 102.429688 54.566406 103.242188 C 54.359375 104.054688 54.191406 104.949219 54.191406 105.234375 C 54.1875 105.539062 54.085938 105.75 53.933594 105.75 C 53.703125 105.75 53.199219 108.003906 52.921875 110.296875 C 52.875 110.683594 52.761719 111 52.667969 111 C 52.574219 111 52.5 111.332031 52.5 111.738281 C 52.5 112.144531 52.429688 112.523438 52.34375 112.574219 C 51.65625 113 51.5 119.332031 52.148438 120.375 C 52.246094 120.53125 52.371094 120.804688 52.433594 120.984375 C 52.496094 121.164062 52.617188 121.3125 52.703125 121.3125 C 52.792969 121.3125 53.039062 121.691406 53.25 122.15625 C 53.460938 122.621094 53.722656 123 53.832031 123 C 54.089844 123 54.734375 123.769531 54.742188 124.082031 C 54.746094 124.214844 54.960938 124.417969 55.21875 124.535156 C 55.476562 124.652344 55.6875 124.828125 55.6875 124.925781 C 55.6875 125.109375 56.875 126.273438 58.507812 127.6875 C 59.042969 128.152344 59.691406 128.71875 59.949219 128.945312 C 60.207031 129.175781 60.5625 129.410156 60.738281 129.464844 C 60.914062 129.519531 61.242188 129.820312 61.472656 130.128906 C 61.699219 130.433594 61.988281 130.691406 62.113281 130.695312 C 62.429688 130.703125 63.085938 131.273438 63.238281 131.671875 C 63.308594 131.851562 63.480469 132 63.628906 132 C 63.867188 132 64.714844 132.691406 66.027344 133.960938 C 66.296875 134.222656 66.613281 134.4375 66.730469 134.4375 C 66.84375 134.4375 67.128906 134.652344 67.355469 134.914062 C 67.585938 135.179688 68.21875 135.691406 68.761719 136.050781 C 69.304688 136.414062 69.75 136.785156 69.75 136.875 C 69.75 136.96875 70.050781 137.1875 70.421875 137.363281 C 70.792969 137.539062 71.164062 137.871094 71.25 138.097656 C 71.339844 138.328125 71.617188 138.566406 71.867188 138.628906 C 72.121094 138.691406 72.554688 139.042969 72.828125 139.402344 C 73.105469 139.765625 73.445312 140.0625 73.582031 140.0625 C 73.71875 140.0625 73.933594 140.1875 74.0625 140.34375 C 74.261719 140.582031 74.21875 140.625 73.804688 140.625 C 73.535156 140.625 73.3125 140.542969 73.3125 140.441406 C 73.3125 140.335938 72.96875 140.199219 72.550781 140.132812 C 72.128906 140.066406 71.683594 139.90625 71.554688 139.777344 C 71.425781 139.648438 71.046875 139.484375 70.710938 139.410156 C 70.375 139.335938 69.875 139.160156 69.597656 139.015625 C 69.320312 138.871094 68.925781 138.75 68.71875 138.746094 C 68.511719 138.738281 68.132812 138.617188 67.875 138.46875 C 67.617188 138.320312 67.238281 138.199219 67.03125 138.195312 C 66.820312 138.191406 66.558594 138.039062 66.445312 137.859375 C 66.332031 137.679688 65.636719 137.324219 64.902344 137.070312 C 64.164062 136.816406 63.5625 136.515625 63.5625 136.402344 C 63.5625 136.289062 63.015625 136 62.34375 135.765625 C 61.671875 135.527344 61.125 135.257812 61.125 135.167969 C 61.125 135.074219 60.996094 135 60.835938 135 C 60.675781 135 60.371094 134.835938 60.15625 134.632812 C 59.9375 134.433594 59.519531 134.214844 59.226562 134.152344 C 58.929688 134.085938 58.6875 133.964844 58.6875 133.882812 C 58.6875 133.800781 58.433594 133.628906 58.125 133.5 C 57.816406 133.371094 57.5625 133.199219 57.5625 133.113281 C 57.5625 133.03125 57.390625 132.90625 57.179688 132.84375 C 56.972656 132.773438 56.589844 132.527344 56.335938 132.289062 C 56.078125 132.050781 55.617188 131.808594 55.308594 131.746094 C 54.972656 131.679688 54.75 131.515625 54.75 131.339844 C 54.75 131.175781 54.46875 130.925781 54.121094 130.78125 C 53.773438 130.636719 53.363281 130.324219 53.207031 130.085938 C 53.046875 129.851562 52.601562 129.488281 52.214844 129.285156 C 51.828125 129.082031 51.105469 128.5 50.609375 127.992188 C 49.703125 127.070312 48.429688 126.808594 48.019531 127.464844 C 47.957031 127.566406 47.550781 127.746094 47.117188 127.859375 C 46.683594 127.976562 46.28125 128.148438 46.226562 128.238281 C 46.167969 128.328125 45.792969 128.460938 45.390625 128.527344 C 44.984375 128.597656 44.613281 128.761719 44.5625 128.894531 C 44.511719 129.027344 44.082031 129.230469 43.609375 129.351562 C 43.136719 129.46875 42.75 129.652344 42.75 129.753906 C 42.75 129.855469 42.617188 129.9375 42.457031 129.9375 C 42.292969 129.9375 42.035156 130.0625 41.882812 130.214844 C 41.734375 130.367188 41.265625 130.582031 40.84375 130.695312 C 40.402344 130.8125 40.046875 131.035156 40 131.222656 C 39.917969 131.539062 39.484375 131.789062 38.296875 132.199219 C 37.960938 132.316406 37.6875 132.488281 37.6875 132.582031 C 37.6875 132.675781 37.539062 132.75 37.359375 132.753906 C 37.179688 132.753906 36.832031 132.964844 36.589844 133.222656 C 36.347656 133.476562 36.03125 133.6875 35.886719 133.6875 C 35.742188 133.6875 35.457031 133.835938 35.25 134.015625 C 35.042969 134.195312 34.707031 134.492188 34.5 134.671875 C 34.292969 134.851562 34.039062 135 33.9375 135 C 33.835938 135 33.75 135.074219 33.75 135.164062 C 33.75 135.257812 33.601562 135.386719 33.421875 135.453125 C 32.753906 135.695312 32.035156 136.164062 31.9375 136.417969 C 31.882812 136.5625 31.53125 136.867188 31.152344 137.09375 C 30.777344 137.320312 30.191406 137.785156 29.851562 138.128906 C 29.511719 138.46875 29.128906 138.75 29.003906 138.75 C 28.882812 138.75 28.53125 139.046875 28.230469 139.40625 C 27.929688 139.765625 27.609375 140.0625 27.511719 140.0625 C 27.261719 140.0625 24.5625 142.785156 24.5625 143.035156 C 24.5625 143.152344 24.449219 143.25 24.308594 143.25 C 23.882812 143.25 23.4375 143.90625 23.4375 144.53125 C 23.4375 145.09375 23.476562 145.125 24.140625 145.125 C 25.085938 145.128906 27.222656 145.484375 27.460938 145.675781 C 27.570312 145.765625 28.4375 145.941406 29.390625 146.070312 C 30.34375 146.199219 31.125 146.367188 31.125 146.449219 C 31.125 146.527344 31.460938 146.648438 31.875 146.71875 C 32.289062 146.789062 32.625 146.90625 32.625 146.980469 C 32.625 147.058594 33.449219 147.273438 34.453125 147.460938 C 35.457031 147.648438 36.324219 147.859375 36.375 147.925781 C 36.558594 148.167969 38.355469 148.835938 39.1875 148.96875 C 39.949219 149.09375 41.007812 149.535156 41.25 149.832031 C 41.300781 149.898438 41.976562 150.144531 42.75 150.386719 C 43.523438 150.625 44.199219 150.867188 44.25 150.925781 C 44.496094 151.203125 45.566406 151.664062 46.453125 151.871094 C 46.996094 151.996094 47.4375 152.164062 47.4375 152.238281 C 47.4375 152.414062 48.300781 152.8125 48.679688 152.8125 C 48.835938 152.8125 49.082031 152.917969 49.226562 153.046875 C 49.855469 153.613281 50.054688 153.714844 51.242188 154.113281 C 51.933594 154.34375 52.5 154.640625 52.5 154.769531 C 52.5 154.902344 52.964844 155.15625 53.539062 155.335938 C 54.109375 155.515625 54.675781 155.761719 54.800781 155.886719 C 55.152344 156.222656 56.289062 156.878906 56.796875 157.03125 C 57.046875 157.109375 57.34375 157.246094 57.453125 157.339844 C 58.378906 158.109375 58.585938 158.25 58.78125 158.25 C 58.902344 158.25 59.195312 158.414062 59.429688 158.617188 C 59.660156 158.820312 60.136719 159.078125 60.488281 159.195312 C 60.839844 159.308594 61.125 159.464844 61.125 159.539062 C 61.125 159.617188 61.652344 159.960938 62.296875 160.304688 C 62.941406 160.648438 63.691406 161.113281 63.960938 161.339844 C 64.230469 161.5625 64.734375 161.863281 65.085938 162.003906 C 65.433594 162.144531 65.894531 162.445312 66.113281 162.667969 C 66.328125 162.894531 66.695312 163.140625 66.925781 163.214844 C 67.40625 163.367188 68.570312 164.097656 69.015625 164.527344 C 69.179688 164.683594 69.40625 164.8125 69.523438 164.8125 C 69.636719 164.8125 69.796875 164.921875 69.882812 165.058594 C 69.964844 165.191406 70.347656 165.449219 70.734375 165.628906 C 71.121094 165.808594 71.4375 166.035156 71.4375 166.132812 C 71.4375 166.230469 71.5625 166.3125 71.71875 166.3125 C 71.875 166.3125 72 166.375 72.003906 166.453125 C 72.003906 166.53125 72.425781 166.800781 72.941406 167.050781 C 73.453125 167.304688 73.875 167.609375 73.875 167.730469 C 73.875 167.851562 74.253906 168.148438 74.71875 168.394531 C 75.183594 168.640625 75.5625 168.90625 75.5625 168.984375 C 75.5625 169.0625 75.691406 169.125 75.847656 169.125 C 76.007812 169.125 76.183594 169.25 76.242188 169.398438 C 76.300781 169.550781 76.5 169.722656 76.6875 169.78125 C 76.875 169.839844 77.308594 170.136719 77.65625 170.441406 C 78 170.746094 78.414062 170.996094 78.578125 170.996094 C 78.742188 171 78.972656 171.207031 79.089844 171.464844 C 79.203125 171.71875 79.597656 172.050781 79.960938 172.203125 C 80.328125 172.355469 80.625 172.589844 80.628906 172.726562 C 80.628906 172.859375 80.984375 173.136719 81.414062 173.34375 C 81.847656 173.550781 82.527344 174.035156 82.921875 174.421875 C 83.316406 174.808594 83.722656 175.125 83.824219 175.125 C 83.929688 175.125 84.269531 175.421875 84.585938 175.78125 C 84.90625 176.140625 85.246094 176.4375 85.347656 176.4375 C 85.445312 176.4375 85.78125 176.691406 86.089844 177 C 86.402344 177.308594 86.773438 177.5625 86.921875 177.5625 C 87.066406 177.5625 87.1875 177.644531 87.1875 177.742188 C 87.1875 178.023438 87.976562 178.707031 88.527344 178.90625 C 88.800781 179.003906 89.0625 179.234375 89.109375 179.414062 C 89.160156 179.597656 89.503906 179.890625 89.878906 180.070312 C 90.253906 180.246094 90.5625 180.460938 90.5625 180.546875 C 90.5625 180.792969 91.742188 181.949219 92.277344 182.222656 C 92.546875 182.363281 92.871094 182.664062 92.996094 182.894531 C 93.117188 183.125 93.46875 183.460938 93.777344 183.640625 C 94.082031 183.824219 94.414062 184.175781 94.507812 184.425781 C 94.601562 184.675781 94.890625 184.960938 95.144531 185.058594 C 95.398438 185.15625 95.738281 185.492188 95.902344 185.804688 C 96.0625 186.117188 96.285156 186.375 96.390625 186.375 C 96.496094 186.375 96.929688 186.753906 97.351562 187.21875 C 97.773438 187.683594 98.195312 188.0625 98.28125 188.0625 C 98.371094 188.0625 98.847656 188.484375 99.339844 189 C 100.28125 189.988281 101.3125 190.292969 101.558594 189.65625 C 101.617188 189.5 101.761719 189.371094 101.878906 189.371094 C 101.996094 189.367188 102.304688 189.203125 102.5625 189 C 102.820312 188.796875 103.179688 188.632812 103.359375 188.628906 C 103.542969 188.628906 103.835938 188.457031 104.011719 188.25 C 104.1875 188.042969 104.441406 187.875 104.574219 187.875 C 104.703125 187.875 104.8125 187.796875 104.8125 187.699219 C 104.8125 187.519531 105.160156 187.304688 106.6875 186.539062 C 107.152344 186.304688 107.65625 185.976562 107.8125 185.808594 C 107.96875 185.640625 108.496094 185.304688 108.984375 185.0625 C 109.472656 184.820312 109.875 184.53125 109.875 184.417969 C 109.875 184.308594 110.339844 184.007812 110.90625 183.75 C 111.472656 183.492188 111.9375 183.21875 111.9375 183.140625 C 111.9375 183.0625 112.042969 183 112.171875 182.996094 C 112.300781 182.996094 112.605469 182.785156 112.847656 182.527344 C 113.089844 182.273438 113.40625 182.0625 113.550781 182.0625 C 113.695312 182.0625 113.8125 181.988281 113.8125 181.894531 C 113.8125 181.804688 114.1875 181.554688 114.644531 181.335938 C 115.101562 181.121094 115.542969 180.835938 115.628906 180.699219 C 115.710938 180.5625 116.078125 180.308594 116.4375 180.140625 C 116.796875 179.96875 117.328125 179.578125 117.613281 179.273438 C 117.898438 178.964844 118.421875 178.617188 118.777344 178.5 C 119.128906 178.386719 119.472656 178.125 119.535156 177.925781 C 119.597656 177.726562 119.75 177.5625 119.871094 177.5625 C 120.144531 177.5625 122.101562 176.246094 122.304688 175.925781 C 122.386719 175.792969 122.566406 175.6875 122.699219 175.6875 C 122.832031 175.6875 123.09375 175.519531 123.28125 175.3125 C 123.46875 175.105469 123.722656 174.9375 123.847656 174.9375 C 123.972656 174.9375 124.300781 174.710938 124.578125 174.433594 C 125.074219 173.9375 125.546875 173.617188 126.296875 173.273438 C 126.507812 173.175781 126.828125 172.878906 127.003906 172.609375 C 127.179688 172.34375 127.425781 172.125 127.550781 172.125 C 127.675781 172.125 128.035156 171.886719 128.34375 171.597656 C 128.652344 171.308594 129.179688 170.914062 129.515625 170.714844 C 129.851562 170.519531 130.125 170.289062 130.125 170.210938 C 130.125 170.128906 130.25 170.0625 130.402344 170.0625 C 130.554688 170.0625 130.816406 169.851562 130.984375 169.59375 C 131.15625 169.335938 131.417969 169.125 131.574219 169.125 C 131.726562 169.125 132.019531 168.914062 132.222656 168.65625 C 132.425781 168.398438 132.683594 168.1875 132.800781 168.1875 C 132.914062 168.1875 133.269531 167.929688 133.582031 167.613281 C 134.226562 166.964844 136.246094 165.375 136.421875 165.375 C 136.484375 165.375 136.832031 165.078125 137.195312 164.71875 C 137.554688 164.359375 137.96875 164.0625 138.113281 164.0625 C 138.257812 164.0625 138.375 164 138.375 163.921875 C 138.378906 163.703125 139.386719 162.71875 140.234375 162.105469 C 140.652344 161.804688 141.042969 161.410156 141.101562 161.230469 C 141.15625 161.050781 141.453125 160.820312 141.761719 160.710938 C 142.070312 160.605469 142.464844 160.261719 142.644531 159.945312 C 142.824219 159.632812 143.058594 159.375 143.167969 159.375 C 143.28125 159.375 143.652344 159.121094 144 158.8125 C 144.347656 158.503906 144.679688 158.25 144.738281 158.25 C 144.796875 158.25 145.011719 157.996094 145.21875 157.6875 C 145.425781 157.375 145.746094 157.074219 145.929688 157.015625 C 146.117188 156.957031 146.914062 156.238281 147.707031 155.421875 C 148.496094 154.605469 149.222656 153.9375 149.316406 153.9375 C 149.410156 153.9375 150.363281 153.050781 151.429688 151.964844 C 153.53125 149.832031 153.914062 148.988281 153 148.5 C 152.792969 148.390625 152.625 148.167969 152.625 148.007812 C 152.625 147.84375 152.394531 147.46875 152.109375 147.171875 C 151.824219 146.875 151.046875 146.03125 150.375 145.296875 C 148.058594 142.761719 144.714844 139.5 144.429688 139.5 C 144.320312 139.5 144.089844 139.28125 143.914062 139.015625 C 143.738281 138.75 143.355469 138.449219 143.054688 138.34375 C 142.757812 138.242188 142.464844 137.996094 142.402344 137.796875 C 142.164062 137.050781 141.421875 137.351562 140.980469 138.375 C 140.761719 138.890625 140.523438 139.3125 140.460938 139.3125 C 140.394531 139.3125 140.222656 139.582031 140.078125 139.910156 C 139.933594 140.238281 139.660156 140.683594 139.46875 140.902344 C 139.058594 141.375 138.375 142.675781 138.375 142.988281 C 138.375 143.109375 138.167969 143.34375 137.917969 143.507812 C 137.664062 143.671875 137.265625 144.230469 137.027344 144.746094 C 136.789062 145.265625 136.5 145.6875 136.378906 145.6875 C 136.261719 145.6875 135.996094 146.007812 135.792969 146.402344 C 135.585938 146.792969 135.175781 147.367188 134.882812 147.679688 C 134.058594 148.539062 133.3125 149.460938 133.3125 149.613281 C 133.3125 149.6875 133.097656 149.863281 132.835938 150.003906 C 132.574219 150.144531 132.21875 150.550781 132.050781 150.90625 C 131.882812 151.261719 131.613281 151.589844 131.449219 151.640625 C 131.289062 151.6875 130.691406 152.265625 130.125 152.921875 C 129.558594 153.582031 128.992188 154.121094 128.871094 154.125 C 128.75 154.125 128.601562 154.273438 128.542969 154.453125 C 128.484375 154.632812 128.144531 154.980469 127.78125 155.226562 C 127.421875 155.472656 127.125 155.746094 127.125 155.835938 C 127.125 156.027344 126.734375 156.414062 125.628906 157.3125 C 125.1875 157.671875 124.566406 158.242188 124.25 158.578125 C 123.9375 158.914062 123.574219 159.1875 123.445312 159.1875 C 123.316406 159.1875 123.03125 159.441406 122.8125 159.75 C 122.324219 160.433594 122.085938 160.472656 122.203125 159.84375 C 122.253906 159.585938 122.355469 159.375 122.429688 159.375 C 122.574219 159.375 123.242188 158.121094 123.554688 157.265625 C 123.65625 156.980469 123.816406 156.75 123.914062 156.75 C 124.007812 156.75 124.140625 156.523438 124.210938 156.246094 C 124.28125 155.96875 124.5 155.511719 124.699219 155.234375 C 124.898438 154.953125 125.0625 154.632812 125.0625 154.519531 C 125.0625 154.40625 125.140625 154.3125 125.234375 154.3125 C 125.332031 154.3125 125.507812 153.996094 125.632812 153.609375 C 125.757812 153.222656 125.933594 152.828125 126.023438 152.726562 C 126.113281 152.628906 126.1875 152.402344 126.1875 152.226562 C 126.1875 152.046875 126.34375 151.851562 126.535156 151.789062 C 126.734375 151.726562 126.976562 151.359375 127.105469 150.925781 C 127.230469 150.507812 127.457031 150.121094 127.605469 150.0625 C 127.753906 150.007812 127.875 149.804688 127.875 149.617188 C 127.875 149.429688 127.988281 149.164062 128.128906 149.023438 C 128.265625 148.882812 128.484375 148.460938 128.605469 148.085938 C 128.730469 147.707031 128.890625 147.371094 128.964844 147.339844 C 129.035156 147.308594 129.335938 146.796875 129.632812 146.203125 C 129.929688 145.609375 130.246094 145.125 130.335938 145.125 C 130.425781 145.125 130.5 145.019531 130.5 144.886719 C 130.5 144.757812 130.667969 144.335938 130.875 143.949219 C 131.082031 143.566406 131.25 143.125 131.25 142.96875 C 131.25 142.8125 131.367188 142.6875 131.511719 142.6875 C 131.78125 142.6875 132.253906 141.835938 132.476562 140.953125 C 132.546875 140.667969 132.671875 140.4375 132.757812 140.4375 C 132.949219 140.4375 133.875 138.503906 133.875 138.105469 C 133.875 137.945312 133.957031 137.8125 134.058594 137.8125 C 134.160156 137.8125 134.339844 137.4375 134.453125 136.980469 C 134.570312 136.523438 134.78125 136.105469 134.925781 136.050781 C 135.070312 135.996094 135.1875 135.835938 135.1875 135.699219 C 135.1875 135.5625 135.28125 135.355469 135.398438 135.238281 C 135.648438 134.988281 136.296875 133.175781 136.304688 132.703125 C 136.308594 132.523438 136.375 132.375 136.453125 132.375 C 136.785156 132.375 137.808594 128.804688 137.8125 127.640625 C 137.8125 127.332031 137.914062 127.125 138.066406 127.125 C 138.394531 127.125 138.558594 125.066406 138.5625 120.925781 C 138.5625 117.753906 138.796875 116.363281 139.445312 115.714844 C 139.585938 115.574219 139.878906 115.109375 140.09375 114.683594 C 140.3125 114.253906 140.542969 113.863281 140.609375 113.8125 C 140.679688 113.761719 140.847656 113.363281 140.988281 112.929688 C 141.128906 112.5 141.355469 112.101562 141.496094 112.046875 C 141.636719 111.992188 141.75 111.828125 141.75 111.683594 C 141.75 111.535156 141.863281 111.371094 142 111.320312 C 142.136719 111.265625 142.398438 110.75 142.578125 110.175781 C 142.773438 109.5625 143.019531 109.125 143.171875 109.125 C 143.3125 109.125 143.484375 108.90625 143.554688 108.636719 C 143.679688 108.128906 144.511719 106.476562 144.722656 106.3125 C 144.914062 106.160156 146.25 103.535156 146.25 103.3125 C 146.25 103.199219 146.425781 102.921875 146.636719 102.695312 C 146.847656 102.46875 147.207031 101.878906 147.433594 101.390625 C 147.65625 100.902344 147.90625 100.5 147.984375 100.5 C 148.0625 100.5 148.125 100.375 148.125 100.21875 C 148.125 100.0625 148.199219 99.9375 148.289062 99.9375 C 148.484375 99.9375 149.25 98.21875 149.25 97.777344 C 149.25 97.605469 149.417969 97.421875 149.625 97.367188 C 149.832031 97.3125 150 97.113281 150 96.925781 C 150 96.738281 150.078125 96.535156 150.171875 96.476562 C 150.269531 96.417969 150.453125 96.054688 150.578125 95.667969 C 150.703125 95.285156 150.945312 94.84375 151.117188 94.6875 C 151.402344 94.425781 152.0625 93.191406 152.0625 92.917969 C 152.0625 92.851562 152.230469 92.617188 152.4375 92.394531 C 152.644531 92.171875 152.8125 91.839844 152.8125 91.652344 C 152.8125 91.464844 152.882812 91.3125 152.96875 91.3125 C 153.140625 91.3125 154.5 88.679688 154.5 88.34375 C 154.5 88.222656 154.605469 88.125 154.734375 88.125 C 154.96875 88.125 155.234375 87.644531 155.636719 86.484375 C 155.753906 86.148438 155.910156 85.875 155.988281 85.875 C 156.183594 85.875 157.125 84.109375 157.125 83.742188 C 157.125 83.574219 157.203125 83.4375 157.300781 83.4375 C 157.394531 83.4375 157.535156 83.246094 157.605469 83.015625 C 157.679688 82.785156 157.789062 82.550781 157.851562 82.5 C 158.023438 82.363281 158.578125 81.402344 159.046875 80.4375 C 159.269531 79.972656 159.585938 79.449219 159.742188 79.273438 C 159.902344 79.101562 160.242188 78.445312 160.5 77.824219 C 160.757812 77.199219 161.035156 76.6875 161.113281 76.6875 C 161.191406 76.6875 161.484375 76.203125 161.761719 75.609375 C 162.039062 75.015625 162.375 74.417969 162.507812 74.285156 C 162.640625 74.148438 162.75 73.871094 162.75 73.675781 C 162.75 73.476562 162.832031 73.3125 162.933594 73.3125 C 163.035156 73.3125 163.269531 72.996094 163.460938 72.609375 C 163.898438 71.714844 164.3125 70.996094 164.457031 70.875 C 164.519531 70.824219 164.6875 70.464844 164.824219 70.078125 C 164.960938 69.691406 165.136719 69.375 165.210938 69.375 C 165.285156 69.375 165.488281 68.996094 165.667969 68.53125 C 165.84375 68.066406 166.0625 67.6875 166.152344 67.6875 C 166.238281 67.6875 166.3125 67.597656 166.3125 67.488281 C 166.3125 67.382812 166.523438 66.980469 166.78125 66.601562 C 167.039062 66.222656 167.25 65.753906 167.25 65.5625 C 167.25 65.371094 167.40625 65.175781 167.59375 65.125 C 167.800781 65.070312 168.070312 64.660156 168.277344 64.066406 C 168.464844 63.53125 168.777344 62.941406 168.964844 62.757812 C 169.15625 62.574219 169.3125 62.300781 169.3125 62.148438 C 169.3125 62 169.480469 61.707031 169.6875 61.5 C 169.894531 61.292969 170.0625 60.957031 170.0625 60.75 C 170.0625 60.542969 170.132812 60.375 170.222656 60.375 C 170.308594 60.375 170.539062 60.015625 170.730469 59.578125 C 170.925781 59.140625 171.222656 58.652344 171.394531 58.496094 C 171.566406 58.339844 171.828125 57.847656 171.980469 57.40625 C 172.128906 56.960938 172.410156 56.414062 172.605469 56.191406 C 173.058594 55.664062 173.625 54.566406 173.628906 54.195312 C 173.632812 54.035156 173.882812 53.664062 174.1875 53.367188 C 174.488281 53.066406 174.835938 52.523438 174.957031 52.15625 C 175.078125 51.789062 175.335938 51.320312 175.527344 51.117188 C 175.71875 50.910156 175.875 50.597656 175.875 50.417969 C 175.875 50.238281 175.949219 50.066406 176.035156 50.03125 C 176.234375 49.953125 177.5625 47.402344 177.5625 47.097656 C 177.5625 46.976562 177.648438 46.875 177.75 46.875 C 177.851562 46.875 177.9375 46.75 177.9375 46.59375 C 177.9375 46.4375 178.011719 46.3125 178.101562 46.3125 C 178.195312 46.3125 178.457031 45.847656 178.6875 45.277344 C 178.921875 44.707031 179.203125 44.179688 179.320312 44.105469 C 179.617188 43.914062 180.1875 42.785156 180.1875 42.390625 C 180.1875 42.207031 180.390625 41.820312 180.640625 41.53125 C 180.890625 41.242188 181.246094 40.679688 181.4375 40.285156 C 181.625 39.890625 181.835938 39.566406 181.902344 39.566406 C 181.96875 39.5625 182.078125 39.332031 182.152344 39.046875 C 182.222656 38.761719 182.441406 38.378906 182.640625 38.195312 C 182.839844 38.011719 183 37.695312 183 37.492188 C 183 37.289062 183.085938 37.125 183.1875 37.125 C 183.289062 37.125 183.375 36.914062 183.375 36.65625 C 183.375 36.363281 183.269531 36.1875 183.09375 36.1875 C 182.9375 36.1875 182.8125 36.117188 182.8125 36.03125 C 182.8125 35.875 180.972656 34.875 180.6875 34.875 C 180.605469 34.875 180.410156 34.75 180.253906 34.59375 C 180.101562 34.4375 179.816406 34.3125 179.625 34.3125 C 179.429688 34.3125 179.015625 34.078125 178.703125 33.792969 C 178.390625 33.507812 177.703125 33.109375 177.171875 32.902344 C 176.640625 32.699219 176.113281 32.402344 175.996094 32.242188 C 175.195312 31.152344 173.761719 31.351562 173.195312 32.628906 C 172.96875 33.144531 172.695312 33.5625 172.59375 33.566406 C 172.492188 33.566406 172.207031 33.988281 171.964844 34.503906 C 171.722656 35.015625 171.449219 35.4375 171.355469 35.4375 C 171.261719 35.4375 171.1875 35.566406 171.1875 35.726562 C 171.1875 35.886719 171.019531 36.195312 170.8125 36.417969 C 170.605469 36.640625 170.4375 36.953125 170.433594 37.113281 C 170.433594 37.273438 170.214844 37.609375 169.953125 37.859375 C 169.691406 38.105469 169.359375 38.539062 169.214844 38.820312 C 168.742188 39.738281 168.082031 39.671875 167.0625 38.605469 C 166.804688 38.332031 166.320312 37.972656 165.984375 37.800781 C 165.648438 37.628906 165.375 37.367188 165.375 37.214844 C 165.375 37.0625 165.296875 36.9375 165.199219 36.9375 C 165.105469 36.9375 164.621094 36.515625 164.121094 36 C 163.625 35.484375 163.117188 35.0625 162.992188 35.0625 C 162.867188 35.0625 162.53125 34.765625 162.242188 34.40625 C 161.953125 34.046875 161.617188 33.75 161.492188 33.75 C 161.367188 33.75 160.953125 33.414062 160.570312 33 C 160.1875 32.585938 159.8125 32.25 159.734375 32.25 C 159.609375 32.25 158.628906 31.367188 156.71875 29.535156 C 156.34375 29.171875 155.945312 28.875 155.84375 28.875 C 155.738281 28.875 155.488281 28.664062 155.285156 28.40625 C 155.082031 28.148438 154.828125 27.9375 154.726562 27.9375 C 154.621094 27.9375 154.253906 27.660156 153.910156 27.320312 C 153.5625 26.980469 152.980469 26.558594 152.609375 26.386719 C 152.242188 26.21875 151.84375 25.863281 151.726562 25.601562 C 151.597656 25.324219 151.351562 25.125 151.132812 25.125 C 150.929688 25.125 150.574219 24.871094 150.34375 24.5625 C 150.117188 24.253906 149.847656 24 149.75 24 C 149.652344 24 149.210938 23.703125 148.769531 23.34375 C 148.328125 22.984375 147.886719 22.6875 147.785156 22.6875 C 147.683594 22.6875 147.554688 22.5625 147.496094 22.40625 C 147.433594 22.25 147.261719 22.125 147.109375 22.125 C 146.957031 22.125 146.765625 22.019531 146.679688 21.890625 C 146.597656 21.761719 146.234375 21.492188 145.875 21.296875 C 145.515625 21.097656 145.15625 20.832031 145.078125 20.707031 C 144.902344 20.414062 143.515625 19.6875 143.132812 19.6875 C 142.972656 19.6875 142.796875 19.523438 142.746094 19.324219 C 142.691406 19.117188 142.21875 18.757812 141.632812 18.480469 C 141.070312 18.214844 140.566406 17.875 140.507812 17.726562 C 140.453125 17.578125 140.09375 17.355469 139.71875 17.230469 C 138.851562 16.949219 137.25 16.09375 137.25 15.914062 C 137.25 15.839844 136.996094 15.722656 136.6875 15.65625 C 136.378906 15.589844 136.125 15.464844 136.125 15.386719 C 136.125 15.304688 135.605469 15.046875 134.96875 14.816406 C 134.332031 14.585938 133.648438 14.238281 133.445312 14.050781 C 133.242188 13.859375 132.832031 13.652344 132.539062 13.589844 C 132.246094 13.523438 131.957031 13.394531 131.898438 13.296875 C 131.839844 13.203125 131.585938 13.125 131.339844 13.125 C 131.09375 13.125 130.738281 12.960938 130.554688 12.765625 C 130.367188 12.566406 129.625 12.210938 128.90625 11.976562 C 128.183594 11.742188 127.550781 11.503906 127.5 11.449219 C 127.347656 11.277344 126.535156 10.929688 125.4375 10.5625 C 124.871094 10.375 124.363281 10.171875 124.3125 10.113281 C 124.261719 10.050781 123.796875 9.886719 123.28125 9.746094 C 122.765625 9.605469 122.234375 9.378906 122.097656 9.246094 C 121.960938 9.109375 121.648438 9 121.410156 9 C 121.167969 9 120.941406 8.9375 120.90625 8.859375 C 120.871094 8.78125 120.019531 8.515625 119.015625 8.265625 C 118.011719 8.015625 117.1875 7.714844 117.1875 7.597656 C 117.1875 7.472656 116.421875 7.246094 115.359375 7.054688 C 112.746094 6.589844 112.6875 6.574219 112.6875 6.371094 C 112.6875 6.269531 112.441406 6.1875 112.140625 6.1875 C 111.839844 6.1875 111.566406 6.117188 111.53125 6.03125 C 111.496094 5.945312 110.546875 5.734375 109.425781 5.5625 C 108.300781 5.390625 107.289062 5.175781 107.175781 5.085938 C 107.0625 4.996094 105.976562 4.808594 104.765625 4.671875 C 103.554688 4.535156 102.5625 4.371094 102.5625 4.304688 C 102.5625 4.234375 101.785156 4.125 100.839844 4.058594 C 99.890625 3.992188 99.066406 3.863281 99.011719 3.773438 C 98.699219 3.285156 84.953125 3.035156 79.039062 3.40625 M 118.246094 60.65625 C 118.304688 60.8125 118.507812 60.9375 118.699219 60.9375 C 120 60.9375 123 62.980469 123 63.867188 C 123 64.007812 123.082031 64.125 123.179688 64.125 C 123.429688 64.125 124.3125 65.101562 124.3125 65.375 C 124.3125 65.5 124.550781 65.769531 124.839844 65.976562 C 125.132812 66.183594 125.523438 66.695312 125.710938 67.109375 C 125.898438 67.527344 126.203125 67.914062 126.382812 67.972656 C 126.566406 68.027344 126.761719 68.265625 126.816406 68.496094 C 126.875 68.726562 127.09375 69.097656 127.304688 69.324219 C 127.515625 69.550781 127.6875 69.78125 127.6875 69.839844 C 127.6875 69.976562 128.671875 71.5 128.84375 71.628906 C 128.914062 71.679688 129.027344 71.953125 129.101562 72.238281 C 129.171875 72.523438 129.304688 72.800781 129.394531 72.855469 C 129.488281 72.914062 129.5625 73.160156 129.5625 73.40625 C 129.5625 73.652344 129.648438 73.90625 129.75 73.96875 C 129.855469 74.035156 129.9375 74.902344 129.9375 75.933594 C 129.9375 76.949219 130.007812 77.808594 130.097656 77.84375 C 130.183594 77.878906 130.40625 83.9375 130.585938 91.3125 C 130.769531 98.6875 130.960938 106.28125 131.007812 108.1875 C 131.070312 110.652344 131.164062 111.710938 131.332031 111.84375 C 131.566406 112.03125 131.65625 113.433594 131.933594 121.3125 C 132.054688 124.761719 131.851562 126.992188 131.382812 127.378906 C 131.160156 127.558594 130.3125 129.933594 130.3125 130.371094 C 130.3125 130.449219 130.160156 130.675781 129.976562 130.875 C 129.792969 131.074219 129.484375 131.683594 129.289062 132.226562 C 129.09375 132.773438 128.878906 133.261719 128.804688 133.3125 C 128.734375 133.363281 128.4375 133.914062 128.148438 134.53125 C 127.855469 135.148438 127.507812 135.765625 127.371094 135.902344 C 127.234375 136.039062 127.125 136.292969 127.121094 136.464844 C 127.117188 136.640625 126.953125 136.992188 126.75 137.25 C 126.546875 137.507812 126.382812 137.816406 126.378906 137.9375 C 126.375 138.058594 126.304688 138.183594 126.214844 138.21875 C 126.128906 138.253906 125.785156 138.851562 125.457031 139.546875 C 125.125 140.242188 124.777344 140.8125 124.679688 140.8125 C 124.582031 140.8125 124.5 140.910156 124.5 141.027344 C 124.5 141.332031 123.316406 143.625 123.160156 143.625 C 123.085938 143.625 122.929688 143.941406 122.804688 144.328125 C 122.683594 144.714844 122.480469 145.117188 122.351562 145.21875 C 122.226562 145.320312 122.011719 145.742188 121.878906 146.15625 C 121.742188 146.570312 121.574219 146.949219 121.5 147 C 121.246094 147.175781 120.1875 149.183594 120.1875 149.488281 C 120.1875 149.652344 120.019531 149.839844 119.8125 149.90625 C 119.605469 149.972656 119.4375 150.125 119.4375 150.246094 C 119.441406 150.707031 118.582031 152.4375 118.304688 152.53125 C 118.144531 152.582031 117.851562 153.109375 117.65625 153.703125 C 117.460938 154.296875 117.117188 154.957031 116.894531 155.171875 C 116.671875 155.386719 116.386719 155.871094 116.261719 156.25 C 116.136719 156.628906 115.957031 156.9375 115.859375 156.9375 C 115.765625 156.9375 115.6875 157.03125 115.6875 157.144531 C 115.6875 157.425781 115.097656 158.652344 114.785156 159.015625 C 114.648438 159.179688 114.308594 159.8125 114.035156 160.421875 C 113.765625 161.03125 113.402344 161.632812 113.234375 161.757812 C 113.066406 161.882812 112.820312 162.371094 112.6875 162.839844 C 112.554688 163.3125 112.34375 163.757812 112.21875 163.832031 C 112.09375 163.90625 111.628906 164.644531 111.191406 165.46875 C 110.75 166.292969 110.289062 167.09375 110.164062 167.25 C 110.039062 167.40625 109.820312 167.828125 109.679688 168.1875 C 109.539062 168.546875 109.324219 168.929688 109.203125 169.03125 C 109.078125 169.132812 108.882812 169.527344 108.761719 169.90625 C 108.640625 170.28125 108.433594 170.632812 108.296875 170.6875 C 108.050781 170.78125 107.402344 172.003906 107.160156 172.828125 C 107.09375 173.058594 106.925781 173.25 106.789062 173.25 C 106.65625 173.25 106.355469 173.714844 106.125 174.28125 C 105.894531 174.847656 105.632812 175.3125 105.542969 175.3125 C 105.453125 175.3125 105.328125 175.523438 105.265625 175.78125 C 105.199219 176.039062 105.082031 176.25 105 176.25 C 104.921875 176.25 104.804688 176.398438 104.746094 176.578125 C 104.683594 176.757812 104.382812 177.328125 104.074219 177.84375 C 103.765625 178.359375 103.417969 179.011719 103.300781 179.296875 C 103.183594 179.582031 103.011719 179.8125 102.914062 179.8125 C 102.820312 179.8125 102.65625 180.035156 102.550781 180.308594 C 102.222656 181.171875 102.203125 180.710938 102.464844 178.214844 C 102.605469 176.875 102.777344 175 102.851562 174.046875 C 102.925781 173.09375 103.058594 172.3125 103.148438 172.3125 C 103.238281 172.3125 103.3125 171.980469 103.3125 171.578125 C 103.3125 171.175781 103.386719 170.816406 103.472656 170.78125 C 103.664062 170.707031 104.253906 162.476562 104.25 159.902344 C 104.25 158.890625 104.332031 158.035156 104.4375 157.96875 C 104.539062 157.90625 104.625 157.183594 104.625 156.363281 C 104.625 155.496094 104.546875 154.875 104.4375 154.875 C 104.328125 154.875 104.25 154.296875 104.25 153.515625 C 104.246094 151.890625 103.792969 148.683594 103.539062 148.519531 C 103.441406 148.457031 103.078125 147.792969 102.730469 147.046875 C 102.382812 146.300781 102.027344 145.6875 101.9375 145.6875 C 101.738281 145.6875 101.078125 144.90625 101.070312 144.660156 C 101.058594 144.410156 98.671875 142.164062 98.28125 142.039062 C 98.109375 141.984375 97.820312 141.675781 97.640625 141.359375 C 97.457031 141.039062 97.140625 140.734375 96.9375 140.679688 C 96.730469 140.625 96.5625 140.519531 96.5625 140.441406 C 96.5625 140.261719 92.988281 136.6875 92.808594 136.6875 C 92.730469 136.6875 92.625 136.519531 92.570312 136.3125 C 92.519531 136.109375 92.226562 135.800781 91.925781 135.625 C 91.625 135.453125 91.234375 135.0625 91.0625 134.761719 C 90.886719 134.460938 90.578125 134.171875 90.375 134.117188 C 90.167969 134.0625 90 133.949219 90 133.867188 C 90 133.664062 87.925781 131.625 87.722656 131.625 C 87.632812 131.625 87.5625 131.5 87.5625 131.34375 C 87.5625 131.191406 87.28125 130.882812 86.9375 130.65625 C 86.59375 130.429688 86.175781 130.007812 86.007812 129.714844 C 85.839844 129.421875 85.550781 129.125 85.367188 129.054688 C 84.988281 128.910156 84.390625 128.253906 84.382812 127.972656 C 84.378906 127.871094 84.058594 127.488281 83.671875 127.121094 C 83.285156 126.753906 82.671875 126.085938 82.3125 125.636719 C 81.953125 125.1875 81.425781 124.550781 81.140625 124.214844 C 80.855469 123.878906 80.625 123.519531 80.625 123.410156 C 80.625 123.304688 80.433594 123.0625 80.203125 122.871094 C 79.972656 122.683594 79.574219 122.125 79.324219 121.628906 C 79.070312 121.132812 78.71875 120.648438 78.542969 120.550781 C 78.363281 120.457031 78.164062 120.136719 78.101562 119.839844 C 78.035156 119.542969 77.816406 119.125 77.617188 118.90625 C 77.414062 118.691406 77.25 118.386719 77.25 118.226562 C 77.25 118.066406 77.171875 117.9375 77.070312 117.9375 C 76.972656 117.9375 76.746094 117.453125 76.5625 116.859375 C 76.378906 116.265625 76.164062 115.734375 76.085938 115.675781 C 76.003906 115.621094 75.847656 115.070312 75.738281 114.457031 C 75.625 113.84375 75.457031 113.199219 75.363281 113.019531 C 75.125 112.574219 75.136719 108.9375 75.375 108.9375 C 75.476562 108.9375 75.5625 108.628906 75.5625 108.25 C 75.5625 107.394531 75.945312 105.125 76.109375 105 C 76.179688 104.949219 76.390625 104.082031 76.585938 103.078125 C 76.78125 102.074219 77.007812 101.25 77.09375 101.25 C 77.179688 101.25 77.25 101.082031 77.25 100.875 C 77.25 100.667969 77.324219 100.5 77.414062 100.5 C 77.503906 100.5 77.734375 99.894531 77.929688 99.152344 C 78.121094 98.410156 78.410156 97.671875 78.574219 97.511719 C 78.738281 97.351562 79.023438 96.710938 79.210938 96.09375 C 79.394531 95.476562 79.789062 94.582031 80.085938 94.109375 C 80.382812 93.636719 80.625 93.140625 80.625 93.007812 C 80.625 92.875 80.878906 92.265625 81.1875 91.660156 C 81.496094 91.050781 81.75 90.464844 81.75 90.363281 C 81.75 90.257812 81.917969 89.992188 82.125 89.769531 C 82.332031 89.546875 82.5 89.257812 82.5 89.121094 C 82.5 88.984375 82.570312 88.875 82.65625 88.875 C 82.746094 88.875 82.929688 88.527344 83.070312 88.105469 C 83.207031 87.679688 83.433594 87.292969 83.566406 87.242188 C 83.703125 87.191406 83.8125 87.03125 83.8125 86.886719 C 83.8125 86.742188 83.878906 86.625 83.960938 86.625 C 84.042969 86.625 84.3125 86.160156 84.5625 85.59375 C 84.8125 85.027344 85.121094 84.5625 85.25 84.5625 C 85.378906 84.5625 85.648438 84.183594 85.855469 83.71875 C 86.0625 83.253906 86.316406 82.875 86.425781 82.875 C 86.535156 82.875 86.625 82.78125 86.625 82.667969 C 86.625 82.472656 87.230469 81.632812 87.84375 80.984375 C 88 80.820312 88.125 80.597656 88.125 80.484375 C 88.125 80.375 88.398438 80.050781 88.734375 79.769531 C 89.070312 79.488281 89.445312 79.015625 89.570312 78.722656 C 89.695312 78.425781 90.007812 78.105469 90.265625 78.007812 C 90.519531 77.910156 90.863281 77.578125 91.019531 77.269531 C 91.179688 76.964844 91.476562 76.660156 91.683594 76.59375 C 91.886719 76.53125 92.195312 76.1875 92.363281 75.832031 C 92.53125 75.476562 92.765625 75.1875 92.886719 75.1875 C 93.003906 75.1875 93.238281 75.03125 93.398438 74.84375 C 93.5625 74.652344 93.855469 74.378906 94.054688 74.234375 C 94.25 74.085938 94.558594 73.738281 94.738281 73.457031 C 94.921875 73.175781 95.28125 72.890625 95.539062 72.824219 C 95.800781 72.757812 96.140625 72.460938 96.292969 72.164062 C 96.445312 71.867188 96.679688 71.625 96.808594 71.625 C 96.941406 71.625 97.421875 71.292969 97.882812 70.882812 C 98.34375 70.472656 98.863281 70.015625 99.035156 69.859375 C 99.210938 69.707031 99.613281 69.449219 99.925781 69.285156 C 100.242188 69.125 100.5 68.910156 100.5 68.808594 C 100.5 68.707031 100.625 68.625 100.78125 68.625 C 100.9375 68.625 101.0625 68.539062 101.0625 68.429688 C 101.0625 68.324219 101.433594 68.078125 101.890625 67.882812 C 102.363281 67.679688 102.769531 67.359375 102.839844 67.140625 C 102.90625 66.925781 103.082031 66.75 103.226562 66.75 C 103.601562 66.75 105 65.996094 105 65.792969 C 105 65.699219 105.125 65.625 105.28125 65.625 C 105.4375 65.625 105.5625 65.558594 105.5625 65.476562 C 105.5625 65.394531 106.285156 64.953125 107.164062 64.492188 C 108.046875 64.03125 108.910156 63.523438 109.085938 63.363281 C 109.265625 63.203125 109.851562 62.910156 110.390625 62.71875 C 110.933594 62.523438 111.375 62.296875 111.375 62.210938 C 111.375 62.128906 111.5 62.0625 111.65625 62.0625 C 111.8125 62.0625 111.9375 61.996094 111.9375 61.917969 C 111.9375 61.746094 113.027344 61.421875 114.703125 61.09375 C 115.421875 60.953125 115.875 60.769531 115.875 60.617188 C 115.875 60.246094 118.101562 60.28125 118.246094 60.65625 M 115.125 72.050781 C 115.125 72.179688 114.566406 72.441406 113.859375 72.640625 C 112.53125 73.011719 111.558594 73.457031 111.335938 73.796875 C 111.265625 73.90625 110.863281 74.109375 110.445312 74.246094 C 110.027344 74.382812 109.6875 74.570312 109.6875 74.65625 C 109.6875 74.742188 109.578125 74.8125 109.441406 74.8125 C 109.304688 74.8125 109.015625 74.980469 108.792969 75.1875 C 108.570312 75.394531 108.28125 75.5625 108.148438 75.566406 C 108.015625 75.566406 107.707031 75.777344 107.464844 76.035156 C 107.222656 76.289062 106.871094 76.5 106.679688 76.5 C 106.492188 76.5 106.183594 76.695312 105.996094 76.9375 C 105.667969 77.351562 104.910156 77.851562 104.210938 78.109375 C 104.03125 78.175781 103.839844 78.378906 103.78125 78.566406 C 103.722656 78.75 103.382812 79.039062 103.023438 79.210938 C 102.667969 79.378906 102.375 79.601562 102.375 79.699219 C 102.375 79.800781 102.167969 79.960938 101.917969 80.058594 C 101.667969 80.152344 101.273438 80.488281 101.039062 80.804688 C 100.808594 81.117188 100.460938 81.375 100.269531 81.375 C 100.078125 81.375 99.78125 81.617188 99.609375 81.914062 C 99.441406 82.210938 99.070312 82.605469 98.792969 82.796875 C 98.511719 82.984375 98 83.503906 97.65625 83.949219 C 97.3125 84.398438 96.769531 85.046875 96.449219 85.390625 C 96.128906 85.734375 95.746094 86.277344 95.605469 86.601562 C 95.460938 86.921875 95.238281 87.1875 95.105469 87.1875 C 94.972656 87.1875 94.789062 87.390625 94.695312 87.636719 C 94.601562 87.886719 94.433594 88.144531 94.324219 88.210938 C 94.214844 88.277344 94.125 88.460938 94.125 88.613281 C 94.125 88.765625 93.960938 89.066406 93.761719 89.28125 C 93.558594 89.496094 93.246094 90.085938 93.066406 90.585938 C 92.886719 91.089844 92.679688 91.5 92.605469 91.5 C 92.535156 91.5 92.375 91.921875 92.25 92.4375 C 92.125 92.953125 91.949219 93.421875 91.855469 93.480469 C 91.761719 93.539062 91.6875 93.742188 91.6875 93.933594 C 91.6875 94.128906 91.570312 94.402344 91.429688 94.542969 C 91.289062 94.683594 91.070312 95.429688 90.945312 96.199219 C 90.820312 96.964844 90.640625 98 90.546875 98.492188 C 89.910156 101.839844 90.699219 108.390625 91.871094 109.5 C 91.925781 109.550781 92.089844 109.929688 92.230469 110.34375 C 92.375 110.757812 92.648438 111.203125 92.839844 111.339844 C 93.03125 111.472656 93.1875 111.691406 93.1875 111.824219 C 93.1875 111.957031 93.445312 112.292969 93.757812 112.570312 C 94.070312 112.851562 94.40625 113.289062 94.503906 113.542969 C 94.601562 113.796875 94.894531 114.085938 95.152344 114.1875 C 95.414062 114.285156 95.769531 114.664062 95.941406 115.023438 C 96.113281 115.386719 96.390625 115.726562 96.554688 115.777344 C 96.722656 115.832031 97.007812 116.128906 97.1875 116.4375 C 97.371094 116.746094 97.628906 117 97.757812 117 C 97.886719 117 98.234375 117.253906 98.53125 117.5625 C 98.828125 117.871094 99.128906 118.125 99.203125 118.125 C 99.277344 118.125 99.632812 118.398438 99.992188 118.734375 C 100.351562 119.070312 100.84375 119.492188 101.085938 119.671875 C 102.421875 120.664062 102.84375 120.9375 103.039062 120.9375 C 103.160156 120.9375 103.476562 121.140625 103.746094 121.386719 C 104.011719 121.636719 104.550781 121.945312 104.9375 122.074219 C 105.328125 122.203125 105.761719 122.421875 105.898438 122.558594 C 106.039062 122.699219 106.351562 122.8125 106.59375 122.8125 C 106.835938 122.8125 107.171875 122.949219 107.335938 123.113281 C 108.339844 124.117188 112.773438 123.558594 113.003906 122.398438 C 113.0625 122.105469 113.183594 121.820312 113.273438 121.765625 C 113.363281 121.710938 113.4375 121.390625 113.4375 121.058594 C 113.4375 120.722656 113.515625 120.371094 113.605469 120.273438 C 113.699219 120.171875 113.816406 119.714844 113.863281 119.25 C 114.234375 115.632812 114.65625 112.574219 114.800781 112.476562 C 114.960938 112.371094 115.238281 111.058594 115.714844 108.1875 C 115.824219 107.515625 115.980469 106.882812 116.058594 106.78125 C 116.136719 106.679688 116.261719 106.191406 116.332031 105.703125 C 116.402344 105.214844 116.53125 104.8125 116.617188 104.8125 C 116.703125 104.8125 116.871094 104.246094 116.992188 103.550781 C 117.113281 102.855469 117.28125 102.203125 117.363281 102.097656 C 117.445312 101.992188 117.570312 101.570312 117.636719 101.15625 C 117.828125 100 118.191406 98.8125 118.355469 98.8125 C 118.433594 98.8125 118.5 98.558594 118.5 98.25 C 118.5 97.941406 118.566406 97.6875 118.648438 97.6875 C 118.730469 97.6875 118.960938 97.089844 119.160156 96.359375 C 119.378906 95.566406 119.65625 94.957031 119.855469 94.851562 C 120.035156 94.753906 120.351562 94.320312 120.554688 93.886719 C 120.757812 93.449219 121.179688 92.808594 121.492188 92.460938 C 121.804688 92.109375 122.0625 91.6875 122.0625 91.515625 C 122.0625 91.347656 122.1875 91.027344 122.34375 90.808594 C 123.117188 89.703125 123.214844 81.503906 122.46875 80.558594 C 122.375 80.441406 122.1875 79.773438 122.050781 79.078125 C 121.917969 78.382812 121.746094 77.8125 121.667969 77.8125 C 121.59375 77.8125 121.476562 77.476562 121.40625 77.0625 C 121.335938 76.648438 121.21875 76.3125 121.148438 76.3125 C 121.074219 76.3125 120.859375 75.9375 120.671875 75.484375 C 120.484375 75.027344 120.152344 74.492188 119.929688 74.292969 C 119.710938 74.09375 119.398438 73.6875 119.238281 73.386719 C 119.027344 72.996094 118.699219 72.773438 118.078125 72.59375 C 117.605469 72.453125 117.167969 72.222656 117.113281 72.078125 C 116.980469 71.726562 115.125 71.703125 115.125 72.050781 M 117.753906 73.050781 C 122.144531 75.441406 124.136719 88.414062 120.742188 92.519531 C 119.148438 94.445312 117.835938 97.738281 116.363281 103.5 C 116.296875 103.757812 116.027344 104.769531 115.769531 105.75 C 115.507812 106.730469 115.164062 108.164062 115.003906 108.9375 C 114.847656 109.710938 114.640625 110.679688 114.546875 111.09375 C 114.453125 111.507812 114.046875 113.910156 113.640625 116.4375 C 112.605469 122.933594 112.574219 122.992188 110.371094 122.996094 C 106.683594 123.007812 101.558594 119.980469 96.625 114.878906 C 91.980469 110.082031 90.578125 106.824219 90.804688 101.394531 C 91.246094 90.898438 98.09375 81.769531 110.808594 74.730469 C 114.789062 72.527344 116.175781 72.191406 117.753906 73.050781 "/>
<path style=" stroke:none;fill-rule:evenodd;fill:rgb(90.588236%,86.274511%,76.078433%);fill-opacity:1;" d="M 114.085938 73.109375 C 108.910156 75.210938 101.453125 80.609375 97.480469 85.125 C 91.835938 91.542969 89.390625 100.585938 91.5 107.257812 C 93.628906 113.988281 104.445312 123.011719 110.371094 122.996094 C 112.574219 122.992188 112.605469 122.933594 113.640625 116.4375 C 114.046875 113.910156 114.453125 111.507812 114.546875 111.09375 C 114.640625 110.679688 114.847656 109.710938 115.003906 108.9375 C 115.164062 108.164062 115.507812 106.730469 115.769531 105.75 C 116.027344 104.769531 116.296875 103.757812 116.363281 103.5 C 117.835938 97.738281 119.148438 94.445312 120.742188 92.519531 C 124.792969 87.617188 121.304688 72.53125 116.128906 72.566406 C 115.730469 72.570312 114.8125 72.8125 114.085938 73.109375 "/>
</g>
</svg>
